<svg width="28" height="28" viewBox="0 0 28 28" fill="none" xmlns="http://www.w3.org/2000/svg">
<path fill-rule="evenodd" clip-rule="evenodd" d="M2.93874 9.12651C2.33301 10.2331 2.33301 11.5681 2.33301 14.2379V16.0125C2.33301 20.5634 2.33301 22.839 3.69984 24.2528C5.06668 25.6666 7.26656 25.6666 11.6663 25.6666H16.333C20.7327 25.6666 22.9327 25.6666 24.2995 24.2528C25.6663 22.839 25.6663 20.5634 25.6663 16.0125V14.2379C25.6663 11.5681 25.6663 10.2331 25.0606 9.12651C24.4549 8.01989 23.3483 7.33307 21.135 5.95945L18.8017 4.51133C16.462 3.05932 15.2922 2.33331 13.9997 2.33331C12.7071 2.33331 11.5373 3.05932 9.19771 4.51133L6.86438 5.95946C4.65112 7.33307 3.54447 8.01989 2.93874 9.12651ZM10.4997 20.125C10.0164 20.125 9.62467 20.5167 9.62467 21C9.62467 21.4832 10.0164 21.875 10.4997 21.875H17.4997C17.9829 21.875 18.3747 21.4832 18.3747 21C18.3747 20.5167 17.9829 20.125 17.4997 20.125H10.4997Z" fill="#6155F5"/>
</svg>
